# xmcd CD database file
#
# Track frame offsets:
#	150
#	59162
#	108681
#	121737
#	143924
#	178276
#	210625
#	227020
#
# Disc length: 3480 seconds
#
# Revision: 0
# Processed by: cddbd v1.5.2PL0 Copyright (c) Steve Scherf et al.
# Submitted via: CDex 1.70beta2
#
DISCID=7a0d9608
DTITLE=Paolo Angeli and Evan Parker/Ned Rothenberg - Free Zone Appleby 2007 (Live)
DYEAR=2007
DGENRE=Jazz
TTITLE0=Shield (Blue) Duo 1
TTITLE1=Shield (Blue) Duo 2
TTITLE2=Shield (Blue) Trio 1
TTITLE3=Shield (Blue) Trio 2
TTITLE4=Shield (Blue) Trio 3
TTITLE5=Shield (Blue) Trio 4
TTITLE6=Shield (Blue) Trio 5
TTITLE7=Shield (Blue) Trio 6
EXTD=YEAR: 2007
EXTT0=
EXTT1=
EXTT2=
EXTT3=
EXTT4=
EXTT5=
EXTT6=
EXTT7=
PLAYORDER=
